<svg xmlns="http://www.w3.org/2000/svg" viewBox="0 0 280 280"><defs><style>.a{fill:none;stroke:#404040;stroke-miterlimit:10;stroke-width:28px;}</style></defs><title>Element-Snowflake-Grey-75</title><line class="a" x1="141" y1="67" x2="141" y2="215"/><line class="a" x1="169" y1="39" x2="141" y2="67"/><line class="a" x1="113" y1="39" x2="141" y2="67"/><line class="a" x1="113" y1="243" x2="141" y2="215"/><line class="a" x1="169" y1="243" x2="141" y2="215"/><line class="a" x1="76.91" y1="104" x2="205.09" y2="178"/><line class="a" x1="66.67" y1="65.75" x2="76.91" y2="104"/><line class="a" x1="38.67" y1="114.25" x2="76.91" y2="104"/><line class="a" x1="215.33" y1="216.25" x2="205.09" y2="178"/><line class="a" x1="243.33" y1="167.75" x2="205.09" y2="178"/><line class="a" x1="76.91" y1="178" x2="205.09" y2="104"/><line class="a" x1="38.67" y1="167.75" x2="76.91" y2="178"/><line class="a" x1="66.67" y1="216.25" x2="76.91" y2="178"/><line class="a" x1="243.33" y1="114.25" x2="205.09" y2="104"/><line class="a" x1="215.33" y1="65.75" x2="205.09" y2="104"/></svg>