<svg xmlns="http://www.w3.org/2000/svg" viewBox="0 0 280 280"><defs><style>.a{fill:#fff;}</style></defs><title>Element-Stars-White</title><path class="a" d="M109.31,81.61a163.28,163.28,0,0,0,24.55,24.55,163.21,163.21,0,0,0-24.55,24.54,163.21,163.21,0,0,0-24.55-24.54,163.28,163.28,0,0,0,24.55-24.55m0-56.06A135.84,135.84,0,0,1,28.7,106.16a135.79,135.79,0,0,1,80.61,80.61,135.79,135.79,0,0,1,80.61-80.61,135.84,135.84,0,0,1-80.61-80.61Z"/><path class="a" d="M141.41,206.83a40.14,40.14,0,0,1-23.81,23.81h0a40.11,40.11,0,0,1,23.81,23.81,40.09,40.09,0,0,1,23.81-23.81,40.11,40.11,0,0,1-23.81-23.81Z"/><path class="a" d="M210.77,135.09a68.28,68.28,0,0,1-40.53,40.53,68.26,68.26,0,0,1,40.53,40.52,68.26,68.26,0,0,1,40.53-40.52,68.28,68.28,0,0,1-40.53-40.53Z"/></svg>